<svg xmlns="http://www.w3.org/2000/svg" xmlns:xlink="http://www.w3.org/1999/xlink" width="381" zoomAndPan="magnify" viewBox="0 0 285.75 98.999996" height="132" preserveAspectRatio="xMidYMid meet" version="1.0"><defs><g/></defs><g fill="#000000" fill-opacity="1"><g transform="translate(24.05196, 63.264571)"><g><path d="M 33.0625 -26.25 L 20.578125 -13.71875 L 34.28125 0 L 22.625 0 L 12.125 -10.484375 L 12.125 0 L 3.0625 0 L 3.0625 -44 L 12.125 -44 L 12.125 -17.09375 L 21.28125 -26.25 Z M 33.0625 -26.25 "/></g></g></g><g fill="#000000" fill-opacity="1"><g transform="translate(52.28784, 63.264571)"><g><path d="M 3.9375 -40.875 C 5 -41.9375 6.257812 -42.46875 7.71875 -42.46875 C 9.1875 -42.46875 10.445312 -41.9375 11.5 -40.875 C 12.5625 -39.820312 13.09375 -38.5625 13.09375 -37.09375 C 13.09375 -35.632812 12.5625 -34.375 11.5 -33.3125 C 10.445312 -32.25 9.1875 -31.71875 7.71875 -31.71875 C 6.257812 -31.71875 5 -32.25 3.9375 -33.3125 C 2.882812 -34.375 2.359375 -35.632812 2.359375 -37.09375 C 2.359375 -38.5625 2.882812 -39.820312 3.9375 -40.875 Z M 3.0625 -26.25 L 3.0625 0 L 12.125 0 L 12.125 -26.25 Z M 3.0625 -26.25 "/></g></g></g><g fill="#000000" fill-opacity="1"><g transform="translate(62.926578, 63.264571)"><g><path d="M 3.0625 0 L 3.0625 -26.25 L 12.125 -26.25 L 12.125 -23.484375 L 12.234375 -23.484375 C 14.585938 -25.835938 17.09375 -27.015625 19.75 -27.015625 C 21.050781 -27.015625 22.335938 -26.84375 23.609375 -26.5 C 24.890625 -26.164062 26.117188 -25.640625 27.296875 -24.921875 C 28.472656 -24.203125 29.425781 -23.1875 30.15625 -21.875 C 30.894531 -20.5625 31.265625 -19.035156 31.265625 -17.296875 L 31.265625 0 L 22.203125 0 L 22.203125 -14.84375 C 22.203125 -16.207031 21.765625 -17.398438 20.890625 -18.421875 C 20.023438 -19.441406 18.894531 -19.953125 17.5 -19.953125 C 16.132812 -19.953125 14.894531 -19.421875 13.78125 -18.359375 C 12.675781 -17.304688 12.125 -16.132812 12.125 -14.84375 L 12.125 0 Z M 3.0625 0 "/></g></g></g><g fill="#000000" fill-opacity="1"><g transform="translate(91.929776, 63.264571)"><g><path d="M 4.859375 -3.25 C 2.398438 -5.925781 1.171875 -9.207031 1.171875 -13.09375 C 1.171875 -16.988281 2.398438 -20.28125 4.859375 -22.96875 C 7.316406 -25.664062 10.4375 -27.015625 14.21875 -27.015625 C 17.695312 -27.015625 20.566406 -25.925781 22.828125 -23.75 L 22.828125 -44 L 31.875 -44 L 31.875 0 L 22.921875 0 L 22.921875 -2.96875 L 22.828125 -2.96875 C 20.566406 -0.476562 17.695312 0.765625 14.21875 0.765625 C 10.4375 0.765625 7.316406 -0.570312 4.859375 -3.25 Z M 12.5625 -17.546875 C 11.382812 -16.390625 10.796875 -14.90625 10.796875 -13.09375 C 10.796875 -11.289062 11.359375 -9.816406 12.484375 -8.671875 C 13.609375 -7.523438 15.09375 -6.953125 16.9375 -6.953125 C 18.707031 -6.953125 20.164062 -7.53125 21.3125 -8.6875 C 22.457031 -9.851562 23.03125 -11.320312 23.03125 -13.09375 C 23.03125 -14.90625 22.441406 -16.390625 21.265625 -17.546875 C 20.085938 -18.710938 18.644531 -19.296875 16.9375 -19.296875 C 15.195312 -19.296875 13.738281 -18.710938 12.5625 -17.546875 Z M 12.5625 -17.546875 "/></g></g></g><g fill="#000000" fill-opacity="1"><g transform="translate(122.058375, 63.264571)"><g><path d="M 3.0625 0 L 3.0625 -26.25 L 12.125 -26.25 L 12.125 -22.46875 L 12.234375 -22.46875 C 12.296875 -22.601562 12.40625 -22.769531 12.5625 -22.96875 C 12.71875 -23.175781 13.050781 -23.535156 13.5625 -24.046875 C 14.070312 -24.554688 14.613281 -25.015625 15.1875 -25.421875 C 15.769531 -25.835938 16.519531 -26.207031 17.4375 -26.53125 C 18.363281 -26.851562 19.304688 -27.015625 20.265625 -27.015625 C 21.253906 -27.015625 22.222656 -26.878906 23.171875 -26.609375 C 24.128906 -26.335938 24.832031 -26.066406 25.28125 -25.796875 L 26 -25.375 L 22.203125 -17.703125 C 21.078125 -18.660156 19.507812 -19.140625 17.5 -19.140625 C 16.40625 -19.140625 15.46875 -18.898438 14.6875 -18.421875 C 13.90625 -17.941406 13.347656 -17.359375 13.015625 -16.671875 C 12.691406 -15.992188 12.460938 -15.414062 12.328125 -14.9375 C 12.191406 -14.457031 12.125 -14.082031 12.125 -13.8125 L 12.125 0 Z M 3.0625 0 "/></g></g></g><g fill="#000000" fill-opacity="1"><g transform="translate(142.723385, 63.264571)"><g><path d="M 4.859375 -3.25 C 2.398438 -5.925781 1.171875 -9.207031 1.171875 -13.09375 C 1.171875 -16.988281 2.398438 -20.28125 4.859375 -22.96875 C 7.316406 -25.664062 10.4375 -27.015625 14.21875 -27.015625 C 17.695312 -27.015625 20.566406 -25.925781 22.828125 -23.75 L 22.828125 -26.25 L 31.875 -26.25 L 31.875 0 L 22.921875 0 L 22.921875 -2.96875 L 22.828125 -2.96875 C 20.566406 -0.476562 17.695312 0.765625 14.21875 0.765625 C 10.4375 0.765625 7.316406 -0.570312 4.859375 -3.25 Z M 12.5625 -17.546875 C 11.382812 -16.390625 10.796875 -14.90625 10.796875 -13.09375 C 10.796875 -11.289062 11.359375 -9.816406 12.484375 -8.671875 C 13.609375 -7.523438 15.09375 -6.953125 16.9375 -6.953125 C 18.707031 -6.953125 20.164062 -7.53125 21.3125 -8.6875 C 22.457031 -9.851562 23.03125 -11.320312 23.03125 -13.09375 C 23.03125 -14.90625 22.441406 -16.390625 21.265625 -17.546875 C 20.085938 -18.710938 18.644531 -19.296875 16.9375 -19.296875 C 15.195312 -19.296875 13.738281 -18.710938 12.5625 -17.546875 Z M 12.5625 -17.546875 "/></g></g></g><g fill="#000000" fill-opacity="1"><g transform="translate(172.851977, 63.264571)"><g><path d="M 3.0625 0 L 3.0625 -26.25 L 12.125 -26.25 L 12.125 -23.484375 L 12.234375 -23.484375 C 14.585938 -25.835938 17.09375 -27.015625 19.75 -27.015625 C 21.050781 -27.015625 22.335938 -26.84375 23.609375 -26.5 C 24.890625 -26.164062 26.117188 -25.640625 27.296875 -24.921875 C 28.472656 -24.203125 29.425781 -23.1875 30.15625 -21.875 C 30.894531 -20.5625 31.265625 -19.035156 31.265625 -17.296875 L 31.265625 0 L 22.203125 0 L 22.203125 -14.84375 C 22.203125 -16.207031 21.765625 -17.398438 20.890625 -18.421875 C 20.023438 -19.441406 18.894531 -19.953125 17.5 -19.953125 C 16.132812 -19.953125 14.894531 -19.421875 13.78125 -18.359375 C 12.675781 -17.304688 12.125 -16.132812 12.125 -14.84375 L 12.125 0 Z M 3.0625 0 "/></g></g></g><g fill="#000000" fill-opacity="1"><g transform="translate(201.855181, 63.264571)"><g><path d="M 29.625 -11.875 L 10.59375 -11.875 C 10.59375 -10.03125 11.1875 -8.664062 12.375 -7.78125 C 13.570312 -6.894531 14.867188 -6.453125 16.265625 -6.453125 C 17.734375 -6.453125 18.894531 -6.644531 19.75 -7.03125 C 20.601562 -7.425781 21.578125 -8.203125 22.671875 -9.359375 L 29.21875 -6.09375 C 26.488281 -1.519531 21.953125 0.765625 15.609375 0.765625 C 11.648438 0.765625 8.253906 -0.585938 5.421875 -3.296875 C 2.585938 -6.015625 1.171875 -9.28125 1.171875 -13.09375 C 1.171875 -16.914062 2.585938 -20.191406 5.421875 -22.921875 C 8.253906 -25.648438 11.648438 -27.015625 15.609375 -27.015625 C 19.765625 -27.015625 23.144531 -25.8125 25.75 -23.40625 C 28.363281 -21 29.671875 -17.5625 29.671875 -13.09375 C 29.671875 -12.476562 29.65625 -12.070312 29.625 -11.875 Z M 10.84375 -16.890625 L 20.828125 -16.890625 C 20.617188 -18.253906 20.078125 -19.300781 19.203125 -20.03125 C 18.335938 -20.769531 17.222656 -21.140625 15.859375 -21.140625 C 14.359375 -21.140625 13.164062 -20.742188 12.28125 -19.953125 C 11.394531 -19.171875 10.914062 -18.148438 10.84375 -16.890625 Z M 10.84375 -16.890625 "/></g></g></g><g fill="#000000" fill-opacity="1"><g transform="translate(227.891422, 63.264571)"><g><path d="M 4.609375 -26.25 L 4.609375 -36.03125 L 13.65625 -36.03125 L 13.65625 -26.25 L 19.1875 -26.25 L 19.1875 -19.34375 L 13.65625 -19.34375 L 13.65625 -11 C 13.65625 -8.582031 14.335938 -7.375 15.703125 -7.375 C 16.046875 -7.375 16.40625 -7.441406 16.78125 -7.578125 C 17.15625 -7.710938 17.445312 -7.847656 17.65625 -7.984375 L 17.96875 -8.1875 L 20.21875 -0.875 C 18.269531 0.21875 16.050781 0.765625 13.5625 0.765625 C 11.851562 0.765625 10.382812 0.46875 9.15625 -0.125 C 7.925781 -0.71875 6.992188 -1.519531 6.359375 -2.53125 C 5.734375 -3.539062 5.285156 -4.597656 5.015625 -5.703125 C 4.742188 -6.816406 4.609375 -8.003906 4.609375 -9.265625 L 4.609375 -19.34375 L 0.8125 -19.34375 L 0.8125 -26.25 Z M 4.609375 -26.25 "/></g></g></g><g fill="#000000" fill-opacity="1"><g transform="translate(243.287513, 63.264571)"><g><path d="M 8.90625 -10.953125 C 10.539062 -10.953125 11.925781 -10.378906 13.0625 -9.234375 C 14.207031 -8.085938 14.78125 -6.695312 14.78125 -5.0625 C 14.78125 -3.457031 14.207031 -2.082031 13.0625 -0.9375 C 11.925781 0.195312 10.539062 0.765625 8.90625 0.765625 C 7.300781 0.765625 5.925781 0.195312 4.78125 -0.9375 C 3.632812 -2.082031 3.0625 -3.457031 3.0625 -5.0625 C 3.0625 -6.695312 3.632812 -8.085938 4.78125 -9.234375 C 5.925781 -10.378906 7.300781 -10.953125 8.90625 -10.953125 Z M 8.90625 -10.953125 "/></g></g></g></svg>